<?xml version="1.0" encoding="utf-8"?>
<!-- Generator: Adobe Illustrator 21.0.2, SVG Export Plug-In . SVG Version: 6.00 Build 0)  -->
<svg version="1.1" id="Ebene_1" xmlns="http://www.w3.org/2000/svg" xmlns:xlink="http://www.w3.org/1999/xlink" x="0px" y="0px"
	 viewBox="0 0 320.4 320.4" style="enable-background:new 0 0 320.4 320.4;" xml:space="preserve">
<style type="text/css">
	.st0{fill:#FFFFFF;}
	.st1{fill:#435277;}
	.st2{fill:#7E85B6;}
</style>
<g>
	<circle class="st0" cx="160.2" cy="160.2" r="160.2"/>
	<circle class="st1" cx="160.2" cy="160.2" r="156.4"/>
	<circle class="st0" cx="160.2" cy="160.2" r="107.3"/>
	<g>
		<path class="st2" d="M265.7,178.8c-1.9,11.8-5.7,22.9-11.1,33.1c-1.9,3.6-4,7.1-6.3,10.4c-3.3,4.7-6.9,9.2-10.9,13.4
			c-0.4,0.5-0.9,0.9-1.3,1.4c-0.3,0.3-0.6,0.6-1,1c-0.8,0.8-1.7,1.7-2.6,2.5c-0.4,0.4-0.8,0.7-1.2,1.1c0,0-0.1,0-0.1,0.1
			c-0.4,0.4-0.8,0.7-1.2,1.1c-0.4,0.3-0.8,0.7-1.1,1c-0.5,0.4-1,0.8-1.5,1.2c0,0,0,0-0.1,0c-0.3,0.2-0.5,0.4-0.8,0.6
			c-0.3,0.2-0.6,0.4-0.8,0.7c-18.1,14-40.8,22.4-65.5,22.4c-9.2,0-18.2-1.2-26.7-3.4c-0.5-0.1-1-0.3-1.5-0.4
			c-0.3-0.1-0.5-0.2-0.8-0.2c-0.4-0.1-0.7-0.2-1.1-0.3c-0.4-0.1-0.9-0.3-1.3-0.4c-0.4-0.1-0.8-0.3-1.3-0.4c-0.4-0.1-0.9-0.3-1.3-0.4
			c-0.2-0.1-0.4-0.1-0.6-0.2c-0.3-0.1-0.6-0.2-1-0.3c-1-0.3-1.9-0.7-2.9-1.1c-32.4-12.5-57.2-40.4-65.5-74.7h20.6v-24.5h-0.9v-0.9
			h0.9v-1.2h0.9v1.2h0.9v0.9h-0.9v5.3h8.4v-18.7h-0.9V148h0.9v-1.2h0.9v1.2H88v0.9h-0.9v5.3h5.6v-27.4h-0.9v-0.9h0.9v-1.2h0.9v1.2
			h0.9v0.9h-0.9v5.3h3.9v-3.7h0.9v3.7h3.6v-7.6H101v-0.9h0.9v-1.2h0.9v1.2h0.9v0.9h-0.9v5.3h7.5v-5.3h-0.9v-0.9h0.9v-1.2h0.9v1.2
			h0.9v0.9h-0.9v7.5h3.5v-3.7h0.9v3.7h4v-5.3h-0.9v-0.9h0.9v-1.2h0.9v1.2h0.9v0.9h-0.9v27.4h5.6v-5.3h-0.9V148h0.9v-1.2h0.9v1.2h0.9
			v0.9h-0.9v5.3h0v13.4h8.4v-5.3h-0.9v-0.9h0.9v-1.2h0.9v1.2h0.9v0.9h-0.9v34.8l13.9-23.9l14,24.1v18.1l7-12.6v-15.7h0.9v4h2.2
			v-40.4l1.6-2.3v-8.9l1.9-2.6v-2.6h-2.8V133h2.8v-9.9l2.1,2.6l1.6-11.6h-1.6v-0.6h1.7l0.4-2.9h-1.6v-0.6h1.7l0.4-2.9h-1.6v-0.6h1.7
			l0.4-2.9h-1.6v-0.6h1.7l0.4-2.9h-1.6v-0.6h1.7l0.4-2.9h-1.6v-0.6h1.7l0.4-2.9h-1.6V92h1.7l0.4-2.9h-1.6v-0.6h1.7l0.4-2.9h-1.6
			v-0.6h1.7l0.6-4.1h0.5v-6.5h-1.5v-0.6h1.5v-1h0.6v-1.9h0.6v1.9h0.6v1h1.5v0.6h-1.5v6.5h0.5l0.6,4.1h1.7v0.6h-1.6l0.4,2.9h1.7V89
			h-1.6l0.4,2.9h1.7v0.6h-1.6l0.4,2.9h1.7v0.6h-1.6l0.4,2.9h1.7v0.6h-1.6l0.4,2.9h1.7v0.6h-1.6l0.4,2.9h1.7v0.6h-1.6l0.4,2.9h1.7
			v0.6h-1.6l0.4,2.9h1.7v0.6h-1.6l1.6,11.6l2.1-2.6v9.9h2.8v1.1h-2.8v2.6l1.9,2.6v8.9l1.6,2.3v20.3h41.5l7.2,7.9h0.1l1.3-4l1.2,4
			h4.8l1.3-4l1.2,4v0.1H265.7z"/>
		<circle class="st0" cx="106.6" cy="167.7" r="4.6"/>
		<g>
			<path class="st0" d="M217.7,197.7c1.2,0,2.2,2.1,2.2,4.6v11.6h-4.5v-11.6C215.5,199.7,216.5,197.7,217.7,197.7z"/>
			<path class="st0" d="M206.2,197.7c1.2,0,2.2,2.1,2.2,4.6v11.6h-4.5v-11.6C203.9,199.7,204.9,197.7,206.2,197.7z"/>
			<path class="st0" d="M123.9,197.7c1.2,0,2.2,2.1,2.2,4.6v11.6h-4.5v-11.6C121.7,199.8,122.7,197.7,123.9,197.7z"/>
			<path class="st0" d="M112.4,197.7c1.2,0,2.2,2.1,2.2,4.6v11.6h-4.5v-11.6C110.1,199.8,111.1,197.7,112.4,197.7z"/>
			<path class="st0" d="M100.8,197.7c1.2,0,2.2,2.1,2.2,4.6v11.6h-4.5v-11.6C98.6,199.8,99.6,197.7,100.8,197.7z"/>
			<path class="st0" d="M89.2,197.7c1.2,0,2.2,2.1,2.2,4.6v11.6H87v-11.6C87,199.8,88,197.7,89.2,197.7z"/>
			<path class="st0" d="M187.8,197.7c1.2,0,2.2,2.1,2.2,4.6v11.6h-4.5v-11.6C185.5,199.7,186.5,197.7,187.8,197.7z"/>
			<path class="st0" d="M229.3,197.7c1.2,0,2.2,2.1,2.2,4.6v11.6H227v-11.6C227,199.8,228,197.7,229.3,197.7z"/>
		</g>
	</g>
	<g>
		<path class="st0" d="M79.4,72.9c-3.3,3.1-9,3.3-12.1-0.3l-11-11.6l1.1-1l11.1,11.6c2.7,2.8,7.2,2.9,10,0.2c2.8-2.7,2.9-7.2,0.3-10
			L67.6,50.2l1.1-1l11,11.5C83,64.3,82.8,69.7,79.4,72.9z"/>
		<path class="st0" d="M88.3,60.6l0.1-1.3c3.5,1.6,7.6-1.1,7.6-1.1c2.8-1.9,3.4-5.1,1.6-7.9c-2.9-4.4-8.1-0.9-9.2-0.5
			c-2.1,0.9-5.9,2.1-8.2-1.5c-1.9-2.9-1.1-6.9,2.1-9c1.8-1.2,4-1.7,5.8-1.3l0.1,1.4c-1.9-0.3-3.5,0.1-5.2,1
			c-2.7,1.8-3.3,4.9-1.8,7.2c1.4,2.1,4.1,2.3,6.5,1c3.4-1.8,8.2-3.2,11.1,1.1c2.1,3.1,1.1,7.3-2.2,9.6
			C96.7,59.3,92.2,62.2,88.3,60.6z"/>
		<path class="st0" d="M99.3,31.2l4.2,9.6l8.8-3.8l0.5,1.3l-8.8,3.8l3.9,9l11.2-4.9l0.6,1.3L107.2,53l-9.8-22.4l12.8-5.6l0.5,1.2
			L99.3,31.2z"/>
		<path class="st0" d="M128.9,35.4l-5,1.3l2.2,8.8l-1.3,0.3l-6-23.9l6.3-1.6c4.1-1,8.3,1.6,9.3,5.7c0.6,2.6,0,5.2-1.8,7.2l-0.6,0.7
			l6.7,8.5l-1.4,0.4l-6.4-8.1C130,35.1,129.2,35.3,128.9,35.4z M128.5,34.2c3.5-0.9,5.6-4.4,4.7-7.9c-0.9-3.5-4.4-5.6-7.9-4.7
			l-4.8,1.2l3.2,12.6L128.5,34.2z"/>
		<path class="st0" d="M166.2,27.9l0.1,1.3l-0.1,0c-0.4,6.1-5.1,11.1-11.2,11.4c-6.4,0.3-11.9-5-12.2-11.7
			c-0.3-6.8,4.7-12.5,11.2-12.8c2.3-0.1,4.5,0.5,6.4,1.7l-0.7,1.3c-1.7-1-3.6-1.6-5.7-1.6c-5.6,0.2-10.1,5.3-9.8,11.2
			c0.2,5.8,5.1,10.5,10.8,10.3c5.2-0.2,9.3-4.6,9.7-9.9l-7.4,0.3l-0.1-1.3l7.5-0.3L166.2,27.9z"/>
		<path class="st0" d="M179.9,33l-5.1-0.8l-1.5,9l-1.3-0.2l4-24.4l6.4,1c4.1,0.7,7,4.8,6.3,8.9c-0.4,2.6-2.1,4.8-4.5,5.9l-0.8,0.4
			l2.8,10.5l-1.5-0.2l-2.7-10C181.1,33.2,180.3,33.1,179.9,33z M180,31.7c3.5,0.6,6.9-1.8,7.4-5.4s-1.8-6.9-5.4-7.4l-4.9-0.8
			l-2.1,12.8L180,31.7z"/>
		<path class="st0" d="M217.1,40.8c-2.4,6.3-9.3,9.6-15.4,7.3c-6.1-2.3-9-9.4-6.6-15.7c2.4-6.3,9.3-9.6,15.3-7.3
			C216.5,27.4,219.5,34.4,217.1,40.8z M215.9,40.3c2.1-5.5-0.6-11.8-5.9-13.8c-5.3-2-11.5,0.9-13.6,6.4c-2.1,5.5,0.6,11.8,5.9,13.8
			C207.6,48.7,213.8,45.8,215.9,40.3z"/>
		<path class="st0" d="M224.4,59.7c-3.8-2.5-5.2-8.1-2.4-11.9l8.8-13.4l1.3,0.8l-8.8,13.4c-2.1,3.3-1.3,7.7,2,9.8
			c3.3,2.1,7.7,1.2,9.8-2l8.8-13.4l1.2,0.8l-8.8,13.3C233.5,61.2,228.3,62.2,224.4,59.7z"/>
		<path class="st0" d="M246.8,67.9l-3.9-3.8l-5.4,5.5l-1-1l17.1-17.6l4.9,4.8c3.2,3.2,3.2,8.5,0,11.8c-2,2.1-4.8,2.9-7.6,2.4l0,0
			c0,0-1.7-0.3-3.2-1.4C247.3,68.4,247.1,68.1,246.8,67.9z M247.7,66.7c2.7,2.7,7.2,2.6,9.8-0.1c2.7-2.7,2.6-7.1-0.1-9.8l-3.8-3.7
			l-9.7,9.9L247.7,66.7z"/>
	</g>
	<g>
		<path class="st0" d="M89,283.5l2.4-22.8l-15.2,17.8l-1.2-0.7l16.3-19.2l1.7,1l-2.2,20.9l16.7-12.6l1.7,0.9l-8,23.9l-1.2-0.7
			l7.4-22.2L89,283.5z"/>
		<path class="st0" d="M119.1,298.2c-4.4-1.3-7.4-6.2-5.8-10.7l4.5-15.4l1.4,0.4l-4.5,15.4c-1.1,3.7,1,7.7,4.8,8.8
			c3.7,1.1,7.7-1.1,8.8-4.8l4.5-15.4l1.4,0.4l-4.5,15.3C128.2,297,123.5,299.5,119.1,298.2z M130.7,273.7c-0.2,0.6-0.7,0.9-1.3,0.7
			c-0.5-0.2-0.9-0.7-0.7-1.3c0.2-0.6,0.8-0.9,1.3-0.7C130.6,272.5,130.9,273.1,130.7,273.7z M125,271.9c-0.2,0.6-0.7,0.9-1.3,0.7
			c-0.5-0.2-0.9-0.7-0.7-1.3c0.2-0.6,0.8-0.9,1.3-0.7C124.8,270.8,125.1,271.4,125,271.9z"/>
		<path class="st0" d="M152.4,304.1l-10.8-24l-2.1,22.7l-1.5-0.1l2.3-24.4l2.3,0.2l10.5,24l2.2-22.8l1.5,0.1l-2.3,24.4L152.4,304.1z
			"/>
		<path class="st0" d="M164.4,300.7l0.7-1.1c2.3,3.1,7.1,2.7,7.1,2.7c3.4-0.3,5.5-2.9,5.2-6.1c-0.4-5.2-6.6-4.7-7.8-4.9
			c-2.3-0.2-6.2-1-6.5-5.3c-0.3-3.4,2.3-6.5,6.2-6.8c2.1-0.2,4.3,0.5,5.8,1.6l-0.6,1.2c-1.5-1.2-3.1-1.6-5-1.6
			c-3.2,0.2-5.2,2.7-5,5.5c0.2,2.5,2.5,4,5.2,4.1c3.8,0.1,8.8,1.1,9.2,6.3c0.3,3.7-2.5,6.9-6.5,7.3C172.3,303.6,167,304,164.4,300.7
			z"/>
		<path class="st0" d="M199.8,274.9l-8.8,2.2l5.6,22.6l-1.3,0.3l-5.6-22.6l-8.8,2.2l-0.3-1.4l19-4.7L199.8,274.9z"/>
		<path class="st0" d="M205.5,272.6l4.3,9.6l8.7-3.9l0.6,1.2l-8.7,3.9l4,9l11.2-5l0.6,1.3l-12.5,5.6l-10-22.3l12.7-5.7l0.5,1.2
			L205.5,272.6z"/>
		<path class="st0" d="M234.6,273.3l-4.3,2.8l4.9,7.6l-1.1,0.7l-13.4-20.7l5.4-3.5c3.6-2.2,8.4-1.2,10.7,2.4c1.4,2.2,1.7,5,0.6,7.4
			l-0.4,0.8l9.1,5.9l-1.2,0.8l-8.7-5.6C235.5,272.7,234.9,273.1,234.6,273.3z M233.7,272.3c3-1.9,3.9-6,1.9-9c-1.9-3-6-3.9-9-1.9
			l-4.2,2.7l7.1,10.9L233.7,272.3z"/>
	</g>
	<g>
		<path class="st0" d="M246.3,259.5c-0.3,0-0.6-0.1-0.8-0.4c-0.4-0.4-0.3-1.1,0.1-1.5c29.4-25.1,46.2-61.6,46.2-100.2
			c0-29.6-9.6-57.5-27.7-80.7c-0.4-0.5-0.3-1.1,0.2-1.5c0.5-0.4,1.1-0.3,1.5,0.2c18.4,23.6,28.1,52,28.1,82
			c0,39.2-17.1,76.3-47,101.8C246.8,259.4,246.5,259.5,246.3,259.5z"/>
	</g>
	<g>
		<path class="st0" d="M76.3,261.3c-0.2,0-0.5-0.1-0.7-0.2c-31.2-25.5-49.2-63.3-49.2-103.6c0-30.2,9.8-58.7,28.4-82.4
			c0.4-0.5,1-0.5,1.5-0.2c0.5,0.4,0.5,1,0.2,1.5c-18.3,23.3-28,51.4-28,81.2c0,39.7,17.6,76.8,48.4,102c0.4,0.4,0.5,1,0.1,1.5
			C76.9,261.1,76.6,261.3,76.3,261.3z"/>
	</g>
	<path class="st0" d="M160.2,53.3c59,0,106.9,47.9,106.9,106.9c0,5.8-0.5,11.5-1.4,17.1c-1.9,11.8-5.7,22.9-11.1,33.1
		c-1.9,3.6-4,7.1-6.3,10.4c-3.3,4.7-6.9,9.2-10.9,13.4c-3.2,3.3-6.5,6.4-10.1,9.2c-0.5,0.4-1.1,0.9-1.7,1.3
		c-18.1,14-40.8,22.4-65.5,22.4c-9.2,0-18.2-1.2-26.7-3.4c-4-1-8-2.3-11.8-3.8c-32.4-12.5-57.2-40.4-65.5-74.7c-1.9-8-3-16.4-3-25.1
		C53.3,101.2,101.2,53.3,160.2,53.3 M160.2,51.2c-14.7,0-29,2.9-42.4,8.6c-13,5.5-24.6,13.3-34.6,23.4c-10,10-17.9,21.7-23.4,34.6
		c-5.7,13.4-8.6,27.7-8.6,42.4c0,8.7,1,17.3,3,25.6c4.1,17.1,12.4,33.1,24.1,46.4c11.6,13.2,26.3,23.5,42.6,29.7
		c3.9,1.5,7.9,2.8,12,3.9c8.8,2.3,18,3.4,27.2,3.4c12.3,0,24.4-2,35.9-6c11.1-3.9,21.5-9.5,30.9-16.8c0.7-0.5,1.2-0.9,1.7-1.3
		c3.6-2.9,7.1-6.1,10.3-9.4c4.1-4.2,7.8-8.8,11.1-13.6c2.4-3.4,4.5-7,6.5-10.6c5.6-10.6,9.4-21.9,11.3-33.7
		c0.9-5.7,1.4-11.6,1.4-17.4c0-14.7-2.9-29-8.6-42.4c-5.5-13-13.3-24.6-23.4-34.6c-10-10-21.7-17.9-34.6-23.4
		C189.2,54.1,174.9,51.2,160.2,51.2L160.2,51.2z"/>
	<g>
		<path class="st0" d="M154.4,224.1h5.2l-1.3,6.4h4.7c2.9,0,5,0.5,6.1,1.5c1.1,1,1.4,2.7,1,5l-2.2,11.3h-5.3l2.1-10.7
			c0.2-1.2,0.2-2.1-0.3-2.5c-0.4-0.4-1.3-0.7-2.6-0.7h-4.2l-2.7,13.9h-5.2L154.4,224.1z"/>
		<path class="st0" d="M181.7,234.4c2,0,3.3,0.4,4,1.1c0.7,0.7,0.8,2,0.5,3.8c-0.4,1.9-1.1,3.2-2.1,4s-2.6,1.2-4.8,1.2h-3.2l2-10.1
			H181.7z M168.9,254.8h5.3l1.3-6.4h4.5c2,0,3.6-0.2,4.9-0.6c1.3-0.4,2.5-1.1,3.5-2.1c0.9-0.8,1.6-1.7,2.1-2.7
			c0.5-1,0.9-2.1,1.2-3.2c0.6-2.9,0.1-5.1-1.3-6.7c-1.4-1.6-3.6-2.4-6.7-2.4h-10.2L168.9,254.8z"/>
		<path class="st0" d="M140.5,234.4c2,0,3.3,0.4,4,1.1c0.7,0.7,0.8,2,0.5,3.8c-0.4,1.9-1.1,3.2-2.1,4c-1,0.8-2.6,1.2-4.8,1.2h-3.2
			l2-10.1H140.5z M127.7,254.8h5.3l1.3-6.4h4.5c2,0,3.6-0.2,4.9-0.6c1.3-0.4,2.5-1.1,3.5-2.1c0.9-0.8,1.6-1.7,2.1-2.7
			c0.5-1,0.9-2.1,1.2-3.2c0.6-2.9,0.1-5.1-1.3-6.7c-1.4-1.6-3.6-2.4-6.7-2.4h-10.2L127.7,254.8z"/>
	</g>
</g>
</svg>
