<svg xmlns="http://www.w3.org/2000/svg" width="198" height="47" viewBox="0 0 198 47"><defs><linearGradient id="a" x1="121.615%" x2="-6.533%" y1="74.246%" y2="0%"><stop offset="0%" stop-color="#A370FF"/><stop offset="41.339%" stop-color="#00A3FF"/><stop offset="100%" stop-color="#4DA1FF"/></linearGradient></defs><path fill="url(#a)" d="M23.662 40.924c.136.41.136.752-.068.683-.137-.068-.682-.136-2.115-.273-.75-.137-1.364-.274-1.432-.479 0 0-.204-.341-.614-.547-1.227-.888-1.705-1.367-2.319-2.255-.34-.547-.886-1.162-1.16-1.573-.954-1.23-1.84-2.666-2.455-4.443-.272-.684-.477-1.3-.477-1.367-.136-.069-.614-1.368-.546-1.573 0-.068-.068-.136-.068-.205-.136-.068-.409-1.162-.545-1.846 0-.205-.069-.478-.137-.547 0-.068-.818 1.641-.955 2.256 0 0-.068.137-.068.342-.614 1.573-1.5 4.034-1.637 4.512-.068.205-.204.889-.34 1.299-.137.547-.546 1.846-.82 2.94-.272 1.025-.681 2.324-.818 2.87-.409 1.094-.477 1.505-.682 2.325-.204 1.025-.545 1.709-.682 1.914-.204.205-.409.205-.409 0 0-.068 0-.137-.068-.137-.137 0-.614.479-.546.547.068.068 0 .068-.136 0-.341-.068-.682-.068-.955.137-.41.41-1.16.888-1.364.888-.069 0-.137.069-.205.137 0 .068-.136.068-.34.068a1.73 1.73 0 0 0-.478.137c-.273.342-.546.342-.819.068-.204-.136-.545-.752-.34-.752.067 0 .204-.615.818-3.144.068-.479.136-.889.204-.889 0-.068.069-.41.137-.683.34-1.641.477-1.914.75-2.735.205-.889.273-1.025.614-1.709.136-.41.204-.615.136-.615 0-.068.069-.137.069-.342.068 0 .136-.068.136-.137 1.16-3.144 1.705-4.648 1.91-5.058.068-.205.204-.616.272-.889.137-.41.614-1.777.819-2.393.068-.205.205-.752.41-1.162.067-.342.272-.957.34-1.299 0-.136.068-.205.068-.341.069-.205.137-.479.137-.547.068 0 .136-.069.204-.205 0-.137.069-.479.205-.684.136-.205.273-.752.477-1.162.069-.41.205-.684.273-.752.068-.068.478-.957.546-1.23l.273-.616c.136-.342.477-1.299.75-2.324.273-.957.614-1.777.682-1.846.068-.137.068-.205 0-.205 0 0-.205.41-.477.889-.614 1.162-.819 1.709-1.16 2.94-.205.751-.546 1.503-.75 1.913-.069.205-.137.205-.341.137-.137-.068-.137-.205 0-.683.204-1.23 2.25-5.948 3.205-7.315.273-.41.41-.615.41-1.026 0-.341.068-.41.136-.41.068.069.136 0 .136 0 0-.068.137-.137.205-.137.136-.068.204-.136.273-.478 0-.205.068-.41.068-.41.068 0 .75.478.886.547.069.068.205.068.41.068.409 0 1.16.137 1.637.274.204.068.409.068.477 0 .068-.137 1.023.136 1.228.478.204.205.204.205.068 1.162-.068.479-.205 1.026-.273 1.094-.068.137-.273.615-.41 1.026-.204.615-.204.683-.136.683.069 0 .205-.068.205-.136a.52.52 0 0 1 .34-.137c.137 0 .206 0 .137-.068-.068-.069.682-.547.955-.547a.147.147 0 0 0 .137-.137c.068-.137.818-.684 2.591-1.777.614-.41 1.228-.82 1.296-.82a43.47 43.47 0 0 1 1.637-1.436c2.66-2.256 4.024-3.555 4.502-4.58.273-.547.273-.616-.069-.753-.204-.068-2.796-.068-3.614-.068-.341.068-.682 0-.682-.068 0-.069-.069 0-.205.068-.068.205-.341.274-.546.274-.204 0-.477 0-.545.068h-.341s-.205 0-.41.068c-.136.069-.34 0-.409-.068-.136-.068-.136-.068-.136 0 0 .205-1.023.478-1.091.342 0-.069-.069-.069-.205 0-.068.068-.137.068-.137.068-.068-.068-.068-.068-.136 0-.068.137-.819.342-1.705.479-.205.136-.614.273-.819.341-.136.069-.41.137-.477.069h-.137c-.068.137-.409.342-.613.342-.069 0-.137 0-.205.068 0 .068-.205.068-.478.137-.204 0-.613.068-.75.273l-.409.137c-.068-.068-.068 0-.068.068 0 0-.137.069-.205.069-.068 0-.204.068-.409.136-.136.137-.205.137-.136.069 0-.069-.069-.137-.069-.069-.136.205-1.16.684-1.364.684-.068 0-.34.068-.409.137-.136.068-.34.136-.34.068-.07 0-.206 0-.206.137a.52.52 0 0 1-.34.136c-.137 0-.205 0-.205.069 0 .137-.546.41-.75.41-.068 0-.137.068-.137.137 0 .136-.955.068-1.023-.069 0-.068-.068-.136-.136-.068-.068 0-.341-.137-.614-.479-.205-.205-.41-.478-.341-.478.068 0 0-.068-.068-.205-.137-.068-.137-.205-.137-.342 0-.137-.614-1.025-.955-1.094-.136 0-.34-.068-.34-.136-.069-.137 0-.479.068-.479.204 0 .409-.068.477-.205.137-.41 1.569-1.367 2.25-1.64.41-.138 1.16-.548 1.774-.89.546-.205 1.364-.547 1.774-.683.409-.068 1.023-.342 1.227-.479.341-.068 1.296-.341 2.25-.478a23.336 23.336 0 0 0 2.115-.41c.478-.137.955-.137.478 0-.341.273-.546.273-.614.342-.068 0-.341 0-.41.068-.136.068-.545.137-.818.342-.34.068-.75.273-.955.342-.75.341-1.841.683-1.91.752 0 0-.204.068-.408.205s-.205.136-.069.136c.137 0 .341 0 1.092-.342.204-.068.477-.136.613-.068.137 0 .75-.068 1.364-.273.546-.137 1.296-.342 1.706-.41.409-.069.75-.137.75-.274.068-.068.409-.068.682-.137.34 0 .682-.068.818-.136.068 0 .478-.069.819-.137.409 0 .818-.069.955-.069.136-.068 1.5-.068 2.932-.136 2.32 0 2.729 0 3.342.136 1.296.342 1.774.616 2.047.82a.375.375 0 0 0 .34.206c.137 0 .615.683.82 1.299.272.683.067 2.05-.274 2.392-.068.137-.204.41-.204.48 0 .34-.478.956-1.023 1.503-.205.342-.546.615-.614.889l-.273.341c-.068 0-.136.069-.068.069 0 .137-.273.547-.41.547-.068 0-.136.068-.136.068.068.069-.136.342-.273.479-.204.205-.613.615-.886 1.025-.273.342-.546.615-.614.615l-.205.205c0 .069 0 .137-.068.137s-.205.068-.341.137c-.205.137-1.091.615-.273.41-.614.615-.614.684-1.227 1.299-.137-.205-.41.205-.546.41-.273.205-.41.273-.75.273-.068 0-.068.069-.068.137s0 .137-.069.137c-.204 0-.682.41-.682.547 0 .068-.204.342-.409.478-.205.137-.477.41-.477.41-.069.206-1.023 1.094-2.456 2.325-.886.889-1.432 1.435-1.432 1.572s0 .137.068.137c.137-.068.137-.068 0 .068s-.136.479 0 .41c.137 0 .137.137-.068.342-.068.069-.068.069 0 .069s.137.068.068.068c-.068.205.069 1.23.273 1.3.068.067.137.136.068.204 0 .068.069.342.137.547.136.205.136.547.068.752v.683c.068.069.068.205.068.205-.068.069 0 .205.068.342.205.274.273.547.205.889-.068.547-.068.957.068.82.068 0 .068.069.068.137 0 .137.069.41.137.615.068.205.136.41.068.479 0 .068.068.342.136.547.069.205.137.547.137.683 0 .137.068.205.136.205s.068.069 0 .069c-.068.136.273 1.299.41 1.367.068 0 .068.068.068.137 0 .068 0 .136.068.136s.204.616.273.752c0 .069.068.069.136.069.205-.069.341.136.478.82.136.752.409 1.64.545 1.64 0 0 .068.137.068.343 0 .136.069.41.137.547.136.136.136.41.136.41 0 .478 1.091 2.324 1.432 2.324.137 0 .75.615.75.684.205.205.274.41.41.683zm-3.615-6.905c-.068-.137-.205-.205-.205-.137 0 0 0 .137.137.342.136.205.204.137.068-.205zM42.145 2.436c.069.069.205.137.41.137.34 0 1.16.684 1.023.82 0 0 .068.137.34.205.205.137.342.137.342 0 0-.068.204.069.546.274.34.273.613.547.682.478.068-.068.136 0 .204.137.068.137.205.479.341.684.137.205.205.547.273.683 0 .547-.955 2.393-1.228 2.393-.204-.068-.204-.068-.068.068.137.137.341.137.478-.068.409-.41 3.137-2.598 3.82-3.145.34-.136.545-.41.545-.547 0-.341 1.16-.136 1.569.137.204.342.477.41 1.023.41 1.09 0 1.637.342 1.841 1.368.068.41.273 1.025.341 1.23.273.684.205 1.64-.136 2.256-.137.41-.614 1.504-.682 1.914-.069.479-.682 2.12-1.023 2.94-.273.615-.75 1.777-.955 2.597-.205.89-.682 2.325-.955 3.487-.41 1.094-.682 2.188-.75 2.393-.069.547-.069.547-.205.957-.273.888-.546 2.187-.41 2.256.069.068 0 .41-.204.752-.204.341-.41.615-.41.752 0 .136-.204 1.162-.545 2.187-.272 1.025-.75 2.393-.886 3.008-.137.615-.41 1.162-.341 1.23a2.102 2.102 0 0 0-.205.89c-.068.341-.205 1.093-.477 1.64-.137.547-.273 1.299-.341 1.64-.205 1.505-.341 2.667-.341 2.803 0 .069-.137.41-.41.547-.272.342-.409.479-.204.615.204.342 0 .616-.41.616-.34 0-.75-.274-1.705-1.162-1.023-1.026-1.295-1.23-2.114-1.368-.614-.136-.886-.136-.955 0 0 .069-.136.342-.272.479-.41.41-.614 0-.41-.684.137-.341.273-1.025.478-1.503.136-.479.409-1.162.545-1.573.068-.342.205-.752.205-1.025.068-.137.136-.479.273-.616a2.43 2.43 0 0 0 .204-.888c0-.41.205-1.094.478-1.64.136-.548.41-1.163.34-1.3 0-.205 0-.41.137-.478.068 0 .137-.205.137-.41 0-.342-.069-.342-.614-.206l-.614.069.546-.205c.34-.069.477-.205.409-.205-.682 0-5.661 1.23-5.934 1.504-.068.068.136 0 .614-.137.955-.274 1.023-.274 1.023-.069 0 .137-.068.137-.137.137-.136 0-1.09.342-2.182.615-1.023.274-2.114.547-2.319.616-.477.068-.546.205-1.91 3.076-.955 1.982-1.432 3.281-2.046 5.4-.477 1.504-.818 1.983-.614.752.068-.547.068-.683-.068-.547-.136.137-.205.547-.273.957 0 .41-.136.752-.136.752-.069 0-.205.137-.41.41-.273.548-.886.89-1.09.548-.137-.205-.751-.41-1.57-.342-.204 0-.477-.069-.409-.137.068-.137-.477-.41-.682-.273-.205.068-1.705-.684-2.114-1.163-.341-.273-.41-.478-.341-1.025.136-.889.886-3.008 1.227-3.555.273-.547.478-.41.137.205-.273.615-.341 3.008-.068 3.076.204.069 1.5-2.529 1.5-3.076 0-.205.068-.41.136-.342l.137-.136c.136-.342.41-.89.614-1.3.273-.614.273-.751.136-.956a.752.752 0 0 0-.545 0c-.137 0-.75.273-1.364.41-.614.137-1.228.41-1.228.478-.068 0-.341.137-.546.342l-.409.137.41-.069c.204-.068.681-.136 1.09-.136.341 0 .819-.069 1.228-.137.478-.068.614-.068.682.137.068.341.068.41-.682.478-1.228.137-2.319.41-2.796.615a1.568 1.568 0 0 1-.614.205c-.068 0-.478.137-.819.41-.682.342-1.227.41-1.227.069 0-.069-.068-.069-.137 0-.34.205-.477.137-1.023-.137-.75-.615-1.296-1.162-1.432-1.435-.068-.205-.205-.41-.41-.41-.136 0-.204-.206-.34-.616-.137-.41-.137-.683-.273-.752-.205-.068-.273-1.025 0-1.025.068 0 .068-.205 0-.547 0-.479 0-.547.273-.547.136 0 .682-.273 1.16-.41 1.022-.479 2.864-1.094 3.614-1.23.341-.07.955-.137 1.296-.343 4.297-1.23 4.91-1.367 7.025-1.777 1.023-.137 1.228-.342 1.569-.889.068-.205.614-1.162 1.091-2.05.546-.958.955-2.051 1.16-2.325.068-.342.136-.683.204-.752.068-.068.205-.478.41-.957.136-.478 1.09-2.12 1.909-3.76.887-1.64 1.978-3.691 2.387-4.512.41-.888.887-1.777 1.16-2.187.682-.957 1.705-3.076 2.046-4.102l.273-1.025-.546.683c-.273.342-.682.889-.819 1.162-.136.342-.477.752-.682.957-.204.206-.477.479-.477.547 0 .069-.205.479-.478.889-.272.342-.75 1.025-1.09 1.504-.546.889-1.024 1.094-.82.479.069-.137.137-.479.205-.547.205-.342 1.092-1.778 1.228-2.325.068-.205.205-.478.273-.478.068 0 .273-.342.477-.752.205-.479.614-1.23 1.023-1.71.273-.546.614-1.093.683-1.298a3.62 3.62 0 0 1 .545-.957c.205-.342.546-.889.682-1.162.205-.342.41-.615.478-.615s.068-.069.068-.205c0-.137.136-.342.273-.41.204-.206.75-.138.955.068zm-7.639 30.148c-.204 0-.477 0-.545.068-.068 0-.478.068-.819.273-.409.069-.682.137-.614.205 0 0 .546-.068 1.228-.273.614-.137 1.023-.273.75-.273zm1.978-6.29c-.068-.068-1.637 1.846-1.637 2.12-.068.136.069.136.341.136.205-.068.546-.41.819-1.162.341-.547.546-.957.477-1.093zm10.708-12.441c-.136 0-.613.683-.613 1.025 0 .205-.068.479-.205.684-.204.341-.204.341-.136-.069.204-.615-.137-.41-1.364 1.026a57.86 57.86 0 0 0-1.774 2.05c-.273.342-.682.684-.75 1.026-.204.342-1.296 1.777-2.455 3.213-.41.547-1.228 1.846-1.228 1.982 0 .069-.136.41-.273.547-.204.205-.545.752-.75 1.23-.205.48-.41.616-.41.48 0-.342-.067-.342-.408.068-.205.205-.41.615-.41.752 0 .136-.068.342-.136.205-.068-.069-.137 0-.137.068 0 .069.069.137.205.069.137 0 .75-.069 1.364-.069.614 0 1.228-.068 1.296-.136.068 0 .341-.069.546 0 .34 0 .477-.069.477-.137 0-.069.137-.069.205-.069.136.069.205 0 .205-.068s.34-.137.75-.137c.409 0 .75-.068.75-.136.068-.069.205-.069.41-.069.34.069.408 0 .886-1.777.136-.547.273-1.23.273-1.504 0-.342.068-.547.136-.547s.137-.068.068-.205c0-.068 0-.205.069-.205.136 0 .204-.068.136-.342-.068-.137 0-.342.068-.342.068-.068.136-.341.205-.546 0-.342.068-.752.136-1.162.068-.342.205-1.026.341-1.504.068-.479.205-1.026.41-1.163.204-.136.204-.136.204.205-.068.206-.068.479 0 .479s1.364-3.486 1.637-4.444l.273-.478zm-9.957 11.143c-.069 0-.682.888-.682 1.025 0 .205.136.068.477-.479.137-.341.273-.547.205-.547zm4.979 7.246c0 .068.068.137.136.137.068-.069.068-.137.068-.342-.136-.069-.204-.069-.204.205zm.34-.957l-.136.137c-.068.068 0 .136.068.136s.137-.068.137-.136c0 0 0-.137-.068-.137zm3.002-12.169c-.069-.136-.41.616-.546 1.3-.068.136-.136.41-.136.546-.068.069-.068.137 0 .137s.273-.479.477-.957c.137-.41.205-.889.205-1.026zm-.41 2.461s-.136.137-.204.479c-.068.342-.137.547-.068.615 0 0 .068-.205.204-.478.068-.274.205-.547.068-.616zm.205-.615c0-.068-.068.069-.068.205 0 .137.068.205.068.069a.208.208 0 0 0 0-.274zm.819-6.152c0 .068 0 .205.068.205.068.068.136 0 .136-.069.068-.273 0-.341-.204-.136zm20.325-9.23c-.205.206-.273.616-.478 1.436-.068.684-.204 1.23-.34 1.504-.205.205-.41.752-.546 1.162-.069.41-.205.89-.41 1.026-.068.137-.136.342-.068.41 0 .068-.068.615-.273 1.162-.136.616-.272 1.3-.34 1.64-.069.616-.342 1.3-.614 1.3-.137 0-.205.068-.205.137 0 .068.068.068.136.068.137-.069.137 0 .137.136 0 .137-.068.274-.205.274-.068 0-.204.205-.273.547-.136.342-.272.478-.409.478-.204 0-.682.89-.682 1.504-.068.137-.136.205-.204.205-.069 0-.41.957-.614 1.778 0 .137-.068.41-.137.547-.068.136-.068.341.068.341s.137 0 0 .069-.272.478-.409.752c-.136.41-.273.752-.477 1.025-.137.137-.273.547-.41.889-.136.342-.272.615-.409.684-.068 0-.204.547-.34 1.23-.137.615-.342 1.23-.478 1.3-.477.478-1.091 2.46-.818 2.802.068.205 0 1.23-.137 1.23-.068 0-.136.342-.273.684-.068.478-.068.683 0 .752.137.068.137.137-.068.137-.136 0-.34.068-.205.204 0 .069-.068.41-.204.616-.137.205-.205.615-.273.888-.068.752-.41 2.188-.614 2.188-.068 0-.068.068-.068.342 0 .137-.068.41-.205.547-.409.478-.477 1.299-.068 1.162.341-.068.205.137-.068.478-.273.342-.682 1.163-.41 1.026.069-.068.137-.137.137-.342-.068-.068 0-.137.068-.137.205 0 .137.205-.477.957-.273.48-.614.958-.682 1.504-.068.41-.205.89-.273.957-.068.069-.204.41-.273.684-.136.342-.204.479-.409.41-.137 0-.205 0-.341.205 0 .205-.068.205-.205.069-.136-.137-.204-.137-.34 0-.137.136-.137.136-.342-.069-.068-.205-.34-.205-.818 0-.478.205-.75.137-.955-.205 0-.068-.137-.136-.341-.136-.341 0-1.228-.547-1.705-1.094-.137-.137-.41-.479-.546-.616-.341-.273-.341-.273 0-.547.136-.136.205-.136.068-.136-.136.068-.136-.068-.136-.684.068-.478.136-.752.273-.683.068 0 .136 0 .136-.069 0-.068-.068-.136-.136-.205-.069 0-.069-.205 0-.547.068-.341.204-.546.204-.478.068 0 .137-.205.137-.547.068-.684.75-3.623.886-3.897.069-.068.137-.41.205-.615.136-.684 1.16-3.486 1.228-3.828.068-.069.204-.41.272-.615 0-.205.137-.616.273-.89.069-.341.273-1.025.478-1.571.136-.616.477-1.504.682-2.051.204-.547.614-1.778.886-2.803.478-1.504 1.296-3.692 1.706-4.785.068-.069.068-.137 0-.137-.137 0-1.092 1.504-1.296 2.256-.137.205-.273.547-.478.615-.136.137-.409.478-.477.752-.75 1.846-1.091 2.05-.41.205.137-.479.546-1.504.75-2.12.751-2.187 1.57-4.443 1.91-5.058.137-.41.273-.889.41-1.025 0-.206.068-.479.136-.479s.205-.342.41-.684c.136-.341.409-.888.477-1.025.136-.205.205-.547.205-.684.068-.341.954-2.46 1.432-3.35.068-.204.477-1.093.818-1.845.273-.684.614-1.436.75-1.572.069-.137.205-.137.546 0 .205.068.341.205.136.341-.068 0 .75.069 1.842.069 1.091 0 2.114.068 2.182.137.41.273 1.092.273 1.364-.069.205-.205.205-.205.205.137-.068.342 0 .479.341.547.75.137.819.752.478 1.094zM51.762 23.15c0-.137.069-.205.069-.205.068.068.068.205 0 .341-.069.069-.069 0-.069-.136zm2.456 20.166c-.069.137-.137.205-.205.137-.068-.068-.068-.137.068-.205.273-.205.273-.205.137.068zm2.796-9.024c.068 0 0 .137-.068.205-.136.137-.205.137-.205 0 0-.068.069-.136.137-.205.068-.068.136-.068.136 0zm1.705-6.152c.068.137.068.205-.204.479-.273.342-.273.342-.137 0a1.74 1.74 0 0 0 .137-.479c0-.137.068-.205.204 0zm27.964-12.51c-.204.889-.477 1.64-.477 1.846a7.746 7.746 0 0 0-.41 1.093c-.136.48-.545 1.3-.818 1.983-.204.615-.545 1.23-.545 1.299 0 .137-1.433 2.734-1.706 2.871-.136.068-1.5 2.256-1.773 2.803-.477.752-1.091 1.709-2.046 2.803-2.046 2.187-2.319 2.529-3.274 3.554-1.637 1.504-4.024 3.555-4.638 3.897-.204.137-.682.479-1.16.684-.545.41-.818.547-1.432.547-.545 0-.954.068-1.09.273-.137.137-.342.205-.615.137-.136 0-.477-.069-.545-.069-.341-.068-.75-.683-1.023-1.299-.341-.82-.478-1.093-.682-1.093-.069 0-.137.068-.137.136.068.205 0 .48-.818 2.325-.273.615-.546 1.162-.546 1.23 0 .069-.205.41-.41.616-.204.205-.476.683-.545 1.025-.068.205-.136.478-.204.41-.068 0-.205.137-.273.479-.068.341-.273.683-.478.957l-.204.342.068-.41.068-.48-.204.41c-.205.343-.205.343-.137-.751.068-.957.068-1.094-.136-1.299-.41-.41-.955-.684-1.16-.615-.136 0-.136 0-.068-.069.341-.205 0-.41-.409-.273-.205.068-.41 0-.34 0 0-.068-.07-.205-.206-.205-.136-.068-.34-.137-.34-.205 0-.069-.069-.069-.137-.069-.341.137-.341-.068 0-.41a1.61 1.61 0 0 0 .136-.547c0-.068.069-.41.205-.615a1.3 1.3 0 0 0 .205-.615c0-.137.136-.547.272-.957.205-.41.546-1.026.75-1.573.75-1.914 1.228-3.008 1.365-3.76.136-.41.409-1.025.545-1.435.41-.889.478-1.025.75-2.05.273-1.095 1.57-4.854 1.91-5.401.205-.41.546-1.436.75-2.256.069-.342.546-1.573.887-2.803.614-1.777.682-2.188.546-2.12-.137 0-.478.411-.682.958-.75 1.777-.955 2.12-1.16 2.187h-.204c-.069-.068 1.364-3.896 1.841-4.853.41-.752.682-1.504.614-1.64 0 0 .205-.48.477-1.026.614-1.094.682-1.504.205-1.367-.205.068-.34.068-.205-.069.069-.068.341-.136.478-.136.136 0 .41-.069.41-.137.067-.069.34-.137.545-.205.204 0 .477-.137.545-.205 0-.137.137-.205.41-.342.136-.069.545-.342.818-.547.41-.205.614-.41.818-.342.137.068.546 0 .819-.137.41-.136.682-.136 1.091-.136.955.136 1.569.478 1.5.615 0 .068 0 .205.069.205.136.137-.068.82-.273 1.162-.068.137-.136.479-.205.684 0 .342-.204.957-.34 1.367-.205.478-.41.957-.41 1.025 0 .069-.136.479-.409.89-.41.546-.546.956-1.5 3.554-.205.547-.75 1.709-1.16 2.598-.41.888-.887 2.187-1.16 2.94-.204.751-.545 1.435-.545 1.435-.068.068-.273.547-.478 1.025-.204.547-.545 1.23-.682 1.572-.204.547-.273.684-.136.957.136.137.136.752.068 1.915 0 1.572 0 1.709.341 1.982.137.205.41.41.41.273.068 0 .068 0 .068.069 0 .205.409.068 1.91-.752.613-.342 1.295-.82 1.636-1.094.546-.615 1.637-1.23 1.16-.684-.068.137-.068.205-.068.205.204 0 3.82-3.623 3.956-3.964.204-.479-.069-.41-.341.068-.137.137-.273.342-.341.205-.137-.068.818-1.094 1.023-.957.068 0 .068 0 0-.068 0-.069 0-.205.068-.205.068-.069.477-.684.886-1.3.478-.683.887-1.435 1.092-1.572.136-.136.409-.478.477-.683.136-.205.478-.684.682-1.094.273-.342.546-.752.614-1.026 0-.205.136-.478.205-.547.068 0 .068 0 0 .137s-.069.137.136 0c.136-.137.136-.205.068-.342-.136 0 .614-1.64.819-1.709.068 0 .068-.068.068-.136-.068-.069 0-.342.136-.616.069-.205.137-.341.137-.068-.137.479 0 .41.204-.205.273-.615.273-.957 0-.479-.068.137-.136.342-.136.205 0-.136.068-.41.205-.615.409-.615.682-1.572.886-2.803.205-1.093.205-1.162-.204-2.324-.546-1.777-1.092-2.324-3.001-2.666-1.296-.273-2.865-.273-4.229-.137-.546.069-1.5.137-1.978.205-.682.069-1.296.137-2.114.479-1.228.547-1.296.547-1.16.342.068-.137.068-.137-.818.273-2.251.889-2.933 1.3-3.956 1.846-.546.342-.955.547-.955.479.068-.069-.205-.069-.614-.069-.614.069-.682 0-.75-.205 0-.205 0-.342.136-.41.068-.068.205-.137.205-.205 0 0-.137-.068-.205 0-.204.068-.204 0-.136-.068.068-.069.204-.137.409-.137.136 0 .205-.069.205-.137s-.069-.137-.137-.137-.068-.068-.068-.205c0-.068-.136-.205-.341-.273-.205 0-.341-.137-.205-.479 0-.41-.886-2.187-1.09-2.324-.206-.068 0-.205.408-.342.205 0 .205-.068.205-.342v-.342c.068 0 .955-.341 1.91-.615 3-1.025 4.16-1.367 5.66-1.709.75-.068 1.638-.273 1.91-.342.819-.273 4.16-.205 5.32 0 .546.069 1.569.48 2.251.684.614.274 1.228.547 1.296.547.068 0 .136.068.136.068 0 .069.205.205.546.41.341.137.614.41.887.548.136.136.545.546.886.683.887.684 1.16 1.026 1.16 1.23 0 .07.068.137.136.137s.205.205.41.479c.068.342.204.547.34.547.069 0 .41.957.819 2.598.477 1.23.34 3.623-.205 5.4zM74.338 27.798c.75-.683 1.433-1.367 1.433-1.367.068 0-.546.615-1.296 1.436-.75.752-1.433 1.435-1.433 1.367-.068 0 .546-.615 1.296-1.436zm29.328-26.182c2.319.068 3.888.273 4.57.478.477.137.954.205 1.09.205.751 0 4.775 2.051 4.639 2.461 0 0 .136.205.204.41.955.821 1.228 1.436 1.228 1.983 0 .205.068.615.137.82.136.137.204.41.204.41-.273.548-.477 1.026-.477 1.231 0 .137-.069.342-.205.205-.068 0-.136.069-.205.205-.068.137 0 .137.137.069.068-.069.068.068-.137.341-.136.205-.272.48-.272.616 0 .068-.069.136-.137.136l-.477.752c-.273.616-1.774 2.188-3.752 3.965-1.227 1.094-1.432 1.231-2.25 1.778-.41.205-.683.547-.683.615 0 .069.205.137.478.137 1.569 0 2.455.205 3.956.889 3.274 1.504 3.137 5.605-.137 9.297-1.637 1.777-4.433 4.58-5.456 5.264-.205.136-.477.41-.477.478 0 .069-.069.137-.137.137s-.75.41-1.432.957c-.682.547-1.637 1.094-1.978 1.367-.41.137-1.091.615-1.637.957-1.432.957-1.91 1.162-4.706 2.393-.546.205-.955.478-.955.478.205.342-2.25 1.094-3.342 1.094-1.091 0-1.569-.273-2.114-1.23-.341-.547-.478-.684-.682-.616-.205.069-.546-.683-.614-1.572 0-.342-.068-.615-.273-.684-.068-.136-.136-.615-.136-1.504l.068-1.162-.41.889a3.754 3.754 0 0 1-.613.957c-.068 0-.068.137-.068.342 0 .136-.069.341-.137.41-.068 0-.136.205-.136.41 0 .137-.137.615-.273.957l-.41.752c0 .137-.067.342-.067.479-.069.068-.205.615-.478 1.299-.205.751-.41 1.093-.546 1.093-.136-.068-.34.069-.477.41-.205.616-.682 1.094-1.023 1.163-.136.068-.682-.137-1.16-.547-.545-.274-1.296-.752-1.773-.957a3.378 3.378 0 0 1-1.023-.616c0-.136-.136-.205-.205-.205-.34 0-.41-.273-.34-.82.067-.342.067-.547-.07-.547-.067 0-.067-.068 0-.205.07-.137.206-.479.274-.752.818-1.846 1.841-3.897 2.046-3.965.41-.205.682-.273.614 0 0 .137-.137.342-.137.41-.068.069-.136.342-.204.547-.068.205-.273.684-.478 1.162a7.41 7.41 0 0 0-.477 1.23l-.068.548.273-.479c.136-.205.477-.889.613-1.436.137-.547.478-1.162.614-1.504.137-.341.546-1.23.75-2.05 1.296-4.034 3.07-8.956 4.434-11.827.818-1.709 1.637-3.486 1.841-4.033a41.77 41.77 0 0 1 .546-1.23c0-.137.068-.342.068-.41.273-.89.341-1.231.273-1.3l-.136.342c-.069.205-.273.479-.41.615-.136.069-.409.479-.545.752-.137.342-.41.547-.478.547s-.273.342-.477.684c-.205.41-.41.615-.478.615s-.136.068-.136.205c0 .205-.955 2.324-1.16 2.324-.34 0-.136-.41.273-1.367.205-.547.478-1.025.478-1.094 0-.068.409-1.025 1.227-2.597.273-.616.75-1.71.887-2.188.068-.137.137-.478.273-.615.068-.137.136-.479.136-.615 0-.137.137-.479.273-.752.546-1.094.614-1.23.614-1.504 0-.205.205-.684.614-1.3.204-.204.477-.41.955-.478.34-.068.682-.136.75-.273.477-.41 3.41-.684 4.979-.41.41 0 1.023.068 1.364.137.34 0 .682.136.75.273a.52.52 0 0 0 .341.137c.205-.137.341.068.341.752 0 .478-.068.752-.545 1.435-.205.479-.614 1.026-.75 1.3-.273.751-.82 1.572-1.228 1.982-.41.41-.682 1.025-.614 1.299 0 .136-.068.205-.137.205-.068 0-.136.136-.204.341 0 .137-.546 1.026-.955 1.846-.546.889-1.023 1.641-.887 1.641 0 .068 1.57-.684 2.456-1.299.34-.137.955-.547 1.432-.889 4.98-2.94 8.935-5.742 11.322-8.271 1.978-2.051 2.114-2.256 1.16-2.598-1.296-.342-6.48-.547-9.344-.342-2.387.205-5.798.684-6.343 1.025-.341.137-1.16.41-2.524.82-.477.07-.955.274-1.16.41-.136.138-.545.343-.681.411-.205 0-.819.273-1.296.479-.955.478-1.364.478-2.115.273-.34-.068-.75-.82-.614-1.094.069-.068 0-.136-.136-.136-.068 0-.205-.137-.205-.342 0-.137.069-.342.137-.342.136 0 .136-.137 0-.342-.068-.205-.137-.478-.137-.547 0-.068-.068-.205-.204-.205-.341-.068-.682-1.025-.478-1.025.069 0 .137-.069.137-.205 0-.137.204-.342 1.978-1.162 1.09-.547 4.16-1.436 5.592-1.641.41 0 1.228-.137 1.91-.274.614-.068 1.5-.136 1.773-.273.341 0 .819-.068 1.228-.137.341 0 1.5-.068 2.455-.205 1.296.137 2.456.137 2.729.137zm2.319 21.055c.136.069.068.069-.341 0-.341 0-.477 0-.477.137 0 .068-.137.137-.41.068-.136-.068-.409-.068-.409 0-.068.137-1.228.41-1.978.41-.136 0-.41 0-.41.069 0 .068-.476.342-1.022.41a4.343 4.343 0 0 0-1.091.41c0 .068-.137.068-.341.068-.205-.068-.341 0-.341.137 0 .205 0 .205-.069.137-.136-.205-1.227 0-1.227.273 0 .069-.068.137-.137.069-.068-.069-.136 0-.136.068 0 .069-.136.137-.341.069-.136 0-.341 0-.41.068 0 .068-.136.068-.34.068-.137 0-.682.137-1.16.342-.614.342-.75.41-.682.547.137.068.137.068-.068 0-.205 0-.614.068-1.228.41-2.25 1.367-3.137 2.188-3.41 3.076 0 .205-.136.547-.273.616-.068.068-.204.341-.273.615 0 .205-.136.478-.204.547-.205.068-1.16 2.392-1.16 2.734 0 .137.137 0 .341-.205.137-.205.273-.41.273-.342 0 .069.068.069.205-.068.068-.069.204-.137.34-.069 0 .069 0 .137-.136.205-.136 0-.204.137-.204.342 0 .137 0 .137.136.069.068-.137.341-.205.41-.205.204 0 .204 0 0 .136-.069.069-.205.342-.205.479 0 .205-.068.547-.137.889-.068.341 0 .41.137.205.068-.205.136-.137.068.136 0 .205 0 .41.068.41s.137.137.205.41c.136.684.614.274.477-.41 0-.068.069-.204.137-.341.068-.137.068-.342 0-.41-.068-.137-.137-.342-.137-.48 0-.204 1.364-1.708 1.705-1.708.341 0 .478.478.205.547-.341.068-.682 1.025-.546 1.23a.242.242 0 0 0 .205.137c.068-.068.546-.137 1.023-.137.478-.068 1.023-.136 1.228-.273.204-.068 1.023-.342 1.773-.479.682-.136 1.5-.41 1.637-.546.205-.069.546-.205.75-.274.478-.137 1.16-.547 2.047-1.367.682-.615.818-.684 1.637-1.367.818-.616 1.295-1.026 2.591-2.461 1.978-1.983 2.046-2.051 2.32-2.598.272-.684.818-1.299 1.022-1.094.069.068.069.342-.068.547-.136.342-.204.547-.204.684 0 .068-.205.478-.478.752l-.477.752c0 .068-.069.136-.205.341-.205.137-.205.137-.068.137.409.068 1.705-1.504 2.25-2.53a8.86 8.86 0 0 1 .683-1.23c.477-.615.204-1.094-.546-1.299-.75.069-2.865-.068-2.524.137zm28.373-5.605c0 1.504-.068 3.008-.136 3.28-.068.343-.137.89-.205 1.095-.136.888-.41 2.734-.614 3.486-.068.41-.136.889-.136 1.026-.068.136-.136.683-.273 1.093-.136.41-.273 1.094-.34 1.573-.478 1.709-.683 2.392-1.365 4.306-.887 2.461-1.16 2.872-2.046 3.897-.614.615-.819.957-.75 1.162 0 .41-1.092 2.188-1.569 2.735-.068.136-.273.341-.273.478-.136.205-1.705 1.367-1.91 1.367-.068 0-.34.137-.477.342-.204.137-.682.479-1.023.684-.41.137-.614.41-.682.41 0 .068-.136.137-.205.137-.068 0-.34.068-.545.136-.546.41-1.16.547-2.933.547-.955.069-1.364.069-1.16 0 .341 0 .546-.068.546-.137 0-.068-.136-.136-.34-.068-.82.137-1.16.137-1.229.069 0-.069-.136-.137-.409-.137-.136-.068-.34-.068-.34-.137 0-.068-.342-.273-.683-.478-.409-.137-1.023-.616-1.296-.889-1.16-1.23-1.364-1.367-1.16-1.367 0 0 0-.069-.136-.137l-.204-.205c0-.069-.068-.342-.341-.684-.137-.342-.41-1.025-.546-1.64-.136-.616-.409-1.23-.409-1.368-.068-.136-.136-.342-.205-.41-.34-.137-.34-3.896-.068-6.494.068-1.23.819-4.854 1.296-6.563.205-.752 1.16-3.486 2.046-6.22.546-1.573 1.433-3.76 2.32-5.538.613-1.094.681-1.436.545-1.64-.068-.206-.136-.206-.478.136-.136.205-.272.41-.409.479-.068 0-.068.068-.068.136 0 .137-.136.342-.204.479-.137.137-.683 1.094-1.16 2.119-.955 2.12-.887 2.051-1.091 1.777-.137-.205-.068-.752.273-1.504.068-.205.204-.546.204-.615 0-.205 1.091-2.46 1.228-2.598.068 0 .136-.068.136-.136 0-.069.137-.41.273-.684.205-.342.546-.889.682-1.094.068-.341.41-.615.546-.888a5.82 5.82 0 0 0 .682-.889c.886-1.23 1.637-1.777 1.637-1.436 0 .069.136.069.204.069.137-.069.478 0 .614.068.137.069.341.069.341 0 .068-.068.614 0 2.183.342.204.068.614.273.886.547.205.205.546.478.614.478.205 0 .478.41.341.616-.068.136-.068.136.137.136.34-.068.34-.068.34 1.231 0 .957-.477 2.119-1.363 3.555-.41.547-.682 1.025-.614 1.025.068 0-.068.137-.205.41-.068.137-.614 1.23-1.16 2.256-.545 1.026-1.159 2.324-1.432 2.871-.955 2.051-3.273 8.135-3.273 8.887 0 .069-.137.547-.273.957-.068.41-.273 1.026-.273 1.504-.068.479-.137 1.094-.205 1.368-.204.957-.273 2.597-.273 4.58.069 1.709.069 2.187.41 3.076.204.547.477 1.162.545 1.23.41.206 1.91-.273 2.524-.82.41-.41.477-.41.41-.068-.07.342-.07.342.34-.068.205-.342.614-.752.887-1.162.273-.41.682-.89.818-.89.136-.136.41-.341.477-.546.137-.205.273-.479.478-.615.41-.479 2.182-4.375 2.865-6.29.545-1.299.682-1.777 1.296-3.691.136-.479.477-1.64.682-2.598.272-.888.613-2.119.75-2.598.204-1.025.545-2.94.409-3.828 0-.205.068-1.162.068-2.119.068-1.23 0-2.12-.204-3.213-.137-.752-.341-1.709-.41-2.12 0-.341-.136-.683-.273-.82-.136-.136-.204-.546-.272-.82 0-.205-.069-.547-.137-.547-.068-.068-.204-.547-.545-1.709 0-.342 0-.342.136 0 .205.205.205.205.341 0 .068-.342.136-.342.682.205.205.342.614.547.682.547.068 0 .068-.068 0-.068-.068-.068-.204-.41-.409-.684-.068-.205-.341-.478-.41-.478-.068 0-.204-.342-.477-.684-.136-.41-.545-.82-.886-1.094-.205-.136-.478-.478-.478-.547 0-.068-.068-.205-.204-.205-.069 0-.341-.068-.41-.205-.136-.137-.477-.273-.682-.41-.34-.068-.477-.137-.477-.205 0-.069-.136-.069-.205-.069-.068 0-.545-.136-.954-.205l-.75-.273.545-.068c.205 0 .682 0 .955.068.341.068.614.068.75 0 .205-.137.41-.069.614.068.205.068.887.274 1.569.479 1.296.205 2.319.683 2.728 1.025.136.137.34.274.41.274.476 0 2.113 2.46 2.386 3.486.068.41.341.684.41.752.681.342 1.432 4.102 1.432 8.614zm-21.62 23.994c-.069-.205-.205-.341-.205-.068 0 .068.068.137.136.205.068.069.068.069.068-.137zm12.072-9.639v.342c-.069.069-.069.069-.069-.068 0-.205 0-.274.069-.274zm2.864-9.502c0-.068.068-.136.068-.136.069.068.069.136 0 .341 0 0-.068 0-.068-.205zm36.558-18.252c0 .068-.204.342-.273.615a37.88 37.88 0 0 0-.682 1.094c-.204.41-.477.888-.614 1.162-.068.205-.477.752-.682 1.162-.272.41-.886 1.299-1.364 2.12-.477.751-.886 1.572-1.16 1.777-.136.205-.272.478-.272.547.068 0 0 .068-.068.136 0 0-.546.616-1.091 1.3-.546.751-1.023 1.435-1.092 1.435-.068 0-.477.478-.818.957-1.296 1.709-4.638 5.264-4.98 5.264 0 0-.408.205-.75.547-.477.205-.75.478-.818.478-.068 0-1.227.957-2.592 2.051-1.978 1.709-2.455 2.119-2.455 2.324v.615c0 .205.136.82.341 1.368.136.547.341 1.299.41 1.709.34 1.367.545 2.187.75 2.529.136.205.204.41.136.479 0 .068.41 1.23.682 1.709.136.205.41.683.477.957.546 1.162.887 1.845 1.16 2.187.477.479 1.364 2.188 1.16 2.325a.52.52 0 0 1-.342.136c-.068 0-.204.069-.204.137-.069.205-.41.205-.478 0-.136-.137-.204-.137-.614.068-.204.137-.477.342-.477.41 0 0-.41.069-.955 0-.682 0-1.091-.068-1.296-.204-.136-.137-.34-.137-.34-.069-.206.342-.478.137-.751-.41-.341-.479-.955-1.71-1.16-2.324-.068-.069-.136-.342-.34-.547a1.74 1.74 0 0 1-.137-.479c0-.068 0-.137-.137-.137-.068-.068-.136-.136-.068-.205 0-.136-.477-1.504-.614-1.572-.068-.068-.136-.41-.34-.683-.069-.342-.273-.957-.478-1.3-.136-.478-.41-1.161-.478-1.572-.068-.478-.272-.957-.34-1.025-.069-.205-.069-.205.068-.068s.204.136.204 0c0-.069 0-.205-.068-.205 0-.069-.068-.137-.068-.206.068-.205.204.137.614 1.573.477 1.504.477 1.572.818 2.187.068.342.273.684.341.957.068.205.205.616.41.82.204.48.204.48.068.069-.069-.137-.205-.615-.341-.957-.069-.342-.137-.615-.273-.752-.068-.137-.546-1.367-.955-2.598-.273-1.025-.477-1.64-.477-1.777-.069-.137-.41.342-.41.615 0 .137 0 .205-.068.068-.068-.136-.204-.068-.682.274-1.023.684-1.296.957-1.705 1.435a77.025 77.025 0 0 1-2.865 2.666 18.598 18.598 0 0 0-1.637 1.641c-1.023 1.162-1.91 2.325-1.841 2.325 0 .068-1.978 2.734-2.046 2.802-.068.069-.273.41-.614.752-.41.616-.546.752-.818.889-.205 0-.478.068-.546.068-.137.069-.478 0-.75 0-.546-.068-.614-.136-.75-.615-.069-.41-.137-.478-.41-.41-.34.068-.41 0-.682-.41-.136-.205-.477-.41-.614-.41-.477 0-.955-.684-.545-1.026.068-.068.272-.478.477-.888.41-.684 1.023-1.71 1.842-2.803.136-.205.136-.205.136-.068 0 .341.205.205.682-.41.273-.41.682-.753.819-.958.204-.136.477-.478.613-.615a.375.375 0 0 1 .341-.205c.137 0 1.228-.957 1.228-1.094.068-.068-.682.342-.682.479l-.477.342c-.137.068 0-.069.409-.41.41-.342.818-.547.955-.479.068 0 .136-.068.136-.137.069-.342 3.547-3.213 5.866-4.853.41-.205.955-.684 1.228-.957.34-.205.545-.41.613-.41.137 0 1.296-1.026 1.296-1.163 0-.068.068-.068.068-.068.069.205.205.137.205-.069 0-.068 0-.136.068-.068.137.069.205-.205.069-.957-.069-.41-.137-.683-.137-.752 0 0-.068-.547-.273-1.23-.136-.616-.273-1.23-.273-1.3.069-.341-.068-2.05-.272-2.46-.069-.479-.137-1.3-.069-1.846 0-.205-.068-.82-.068-1.299-.068-.41-.136-1.299-.204-1.914v-2.188c0-.547 0-1.299.068-1.777.068-.479.136-1.3.204-1.915V6.88l-.136.957c-.136.615-.136.752-.136.547 0-.479-.069-.684-.137-.41-.068.068-.068.478-.068.82-.068.615-.068.752-.273.957-.068.137-.136.205-.068.137.136-.069.136.136.068.546v3.487c0 .683.205 1.64.273 1.299.068-.069.068-.41 0-.684v-.684c.068-.341.273 1.778.273 3.282 0 .683 0 1.299-.068 1.367-.069.068-.069.068 0 .068.068-.068.204.137.34.547.137.41.069.616 0 .684-.204 0-.204 2.119-.068 2.324.069.069.137.069.137-.205v-.41l.068.41c.068.205.068.41 0 .479-.068 0-.068.478.068 1.025.068.547.136 1.094.068 1.162 0 .069-.068-.068-.068-.41-.068-.205-.136-.82-.341-1.299-.068-.478-.273-1.299-.273-1.914 0-.547-.068-1.367-.204-1.777-.069-.41-.137-1.3-.205-2.12 0-.683-.068-1.572-.205-1.777 0-.342-.068-.752-.068-1.162V12.35c0-.547-.068-1.163-.068-1.3 0-.136-.068.07-.136.48-.069.41-.137 1.025-.205 1.367 0 1.025 0 1.093-.205 1.093-.136 0-.136.069-.136.342 0 .137-.068.342-.136.41-.137.069-.137 0-.137 0v-.478c.068-.137.068-.684.068-1.162.069-1.162.819-5.332 1.5-8.135.547-2.12.615-2.256.82-2.393.136-.068.34-.205.409-.342.204-.615.682-.888.682-.478.068.342.75.273.75 0 .068-.069 0-.137 0-.205-.205-.137-.068-.205.41-.137.409.068.477 0 .477-.069-.068-.136 0-.205.34-.136.205.068.41.068.478-.069.137-.068.137-.068.205.069 0 .068.068.068.34 0 .478-.342 2.047 0 2.252.547.068.068.068.341-.069.615-.409.889-1.023 4.033-1.09 5.195-.069.616-.137 1.23-.205 1.3v.546c.068.137.068.615 0 .957-.137 1.162 0 5.742.136 6.768.068.478.205 1.709.068 1.914 0 .068.068.752.068 1.572.069 1.094.137 1.368.341 1.3.137 0 .137 0 0 .136a.376.376 0 0 0-.204.342c0 .068.409-.137.818-.547 1.364-1.026 2.455-2.188 2.455-2.324-.068-.069.069-.205.273-.41.614-.41 1.569-1.368 1.91-1.915.478-.615.682-.957 1.978-2.256.682-.752 1.432-1.64 1.637-1.982.205-.342.41-.615.477-.547 0 0 .069-.068.069-.205.136-.479.409-.957 1.159-2.256.546-1.026 1.16-2.256 2.455-5.127.478-1.094.614-1.504 1.023-2.735.273-.957.41-1.093.819-1.23.614-.069 1.228 0 1.5.205.205.205.342.205.478.068.41-.342.75-.273 1.023.205.068.205.34.41.546.479l.545.273c.068.137.341.274.546.274.477.068.955.205.955.273v.615c-.341.137-.41.342-.478.41zM126.037 36.48s0-.068.069-.137c.204-.205.204-.136.068.069 0 .068-.068.137-.137.068zm1.296-1.367c.273-.342.614-.479.614-.479.068 0-1.16 1.026-1.432 1.368-.41.205.273-.479.818-.889zm10.64-26.046c0 .479-.273 2.325-.34 2.051 0-.137.067-.752.204-1.299.068-.752.136-.957.136-.752zm-.204 2.325c0 .068 0 .136-.069.205-.068.136-.068.068-.068-.069.068-.068.068-.136.137-.136zm.068 1.435c0 .342-.068.752-.137.684v-.479c.069-.341.069-.341.137-.205zm.545 7.178v.342c-.068.068-.136 0-.136-.137 0-.273.068-.273.137-.205zm0 1.094s0 .137-.068.205c0 .068-.068.068 0-.068 0-.137.069-.206.069-.137zm.273 1.572c0 .068 0 .137-.068.068-.068 0-.068-.068-.068-.136 0-.205.068-.205.136.068zm.068 2.324c0 .069.069.342.069.41 0 .342 0 .342-.069 0-.068-.068-.136-.341-.068-.41.068-.136.068-.136.068 0zm.069-1.299c0 .069-.069-.068-.069-.205-.068-.136-.068-.41-.068-.41 0-.068.068 0 .068.137.069.137.069.342.069.479zm.136.274c.068.068.068.205.068.342-.068.068-.068 0-.136-.069 0-.068-.068-.205.068-.273-.136-.137-.136-.137 0 0zm.137 1.23c-.069-.136 0-.136.068-.068.068.137.068.205 0 .205-.068.137-.068.069-.068-.136zm3.683 11.554c.136.41.204.478.136.068 0-.068-.068-.205-.136-.342-.069 0-.069.137 0 .274zm1.978-15.655c-.205.137-.205.137-.069 0 .205-.205.41-.342.341-.205 0 .068-.068.136-.272.205zm.886-.752l-.34.205.272-.342c.136-.137.341-.205.341-.205.205 0 0 .068-.273.342zm2.728-2.94c-.204.205-.204.205 0 0s.273-.341.341-.136l-.34.136zm2.183-2.46c-.205.136-.205.136-.068-.07.204-.136.409-.204.34-.136a.936.936 0 0 1-.272.205zm.546-.548c-.205.206-.205.206-.069-.068.137-.137.341-.205.341-.205-.068 0-.136.137-.272.274zm7.025-11.553s0-.068-.068-.068c-.069 0-.205.205-.273.547-.137.205-.273.547-.41.684-.068.136-.068.136.069.068.136-.068.614-1.026.682-1.23zm.955-1.572c0-.137-.341-.137-.478-.068 0 .068-.068.205-.136.478-.068.342-.068.342.136 0a.375.375 0 0 1 .341-.205c.069-.068.069-.136.137-.205zm26.327.137c-.546.342-.614.478-.546 1.299.136.957 0 1.504-.682 1.914-.341.205-.546.478-.614.547 0 .137-.068.205-.204.342-.137 0-.205.136-.205.341s-1.092.684-1.774.889c-.818.137-1.16.274-2.182.479-.546.068-1.023.136-1.023.068 0 0-.068 0-.137.068-.136.137-.545.205-.818.342-.41.069-.819.274-1.16.342-.34.137-.954.41-1.432.547-.546.205-1.296.478-1.841.683-.478.137-1.5.479-2.32.82l-1.432.548-.614 1.162c-.409.615-.682 1.162-.75 1.23-.136.069-.886 1.64-1.637 3.555a40.13 40.13 0 0 0-.955 2.393c-.272.478-.545 1.435-.34 1.367.068 0 .681-.274 1.5-.479.818-.273 1.296-.478 1.16-.547-.069-.068.068-.068.34 0 .41.069.546 0 .478-.068 0-.068.205-.137.614-.137.34 0 .682-.068.75-.273.068-.068.546-.342 1.023-.41.478-.068 1.637-.342 2.524-.547 1.637-.342 3.07-.82 3.887-1.23.137-.069.75-.274 1.364-.274.546 0 .955 0 .75.068-.34.069-1.022.684-1.022.957 0 .206.545.069.818-.273.273-.342.478-.205.682.205.341.684.273 1.026-.34 1.504-.546.479-.546.479-.274 1.025.273.752.273.684-.068 1.23-.204.41-.204.616-.136.89.068.136.136.478.136.683 0 .41-.068.41-.409.342-.204-.068-.34 0-.204.068.068.137-.682.342-1.637.342-.478 0-.75.137-1.023.342-.137.137-.614.342-1.023.41-.478 0-1.092.273-1.637.479-1.023.615-3.683 1.435-5.047 1.504-1.501.136-3.343.683-3.615.888-.137.137-.41.205-.614.205-.546 0-2.797 1.3-2.865 1.573-.068.136-.136.41-.204.41-.205.136-.887 1.504-.887 1.709 0 .068-.205.547-.478.957-.204.41-.545 1.094-.682 1.435-.068.41-.477 1.162-.75 1.778-.273.615-.614 1.504-.682 2.05-.068.548-.136 1.094-.205 1.3-.068.136-.068.41 0 .41s1.774-1.026 1.91-1.162c0-.069.341-.206.614-.479.34-.205.614-.479.682-.547.068 0 .34-.205.614-.41.34-.137.545-.342.545-.41 0 0 .546-.342 1.16-.616.545-.341 1.296-.82 1.705-1.093.34-.206.75-.547.955-.616.204 0 .477-.205.477-.341.068-.137.205-.206.341-.137.137.068-.204.683-.818 1.435-.41.342-.546.684-.478 1.094 0 .068-.136.205-.204.342-.137.137-.273.342-.273.41 0 .137-.682 1.162-.887 1.23-.068 0-.068.137-.136.206 0 .136-.068.205-.205.136-.136 0-.204 0-.136.069.068.137-1.705 1.777-1.91 1.777-.068 0-.341.205-.477.479-.205.342-.478.547-.614.615-.137 0-.341.205-.273.41 0 .137-.136.41-.41.41-.136.069-.408.342-.545.547-.204.342-.545.479-1.091.616a7.698 7.698 0 0 0-1.091.41c-.682.273-1.16.273-2.183 0-.614-.137-1.091-.41-1.16-.547-.068-.137-.204-.342-.409-.274-.545 0-1.432-.82-1.91-1.914-.34-.683-.409-1.025-.272-1.094.068 0 .136-.136.068-.341-.136-.342-.068-.616.068-1.026.205-.41 1.091-3.896 1.228-4.307 0-.136.204-.957.546-1.572.613-1.299.613-1.504.068-2.324-.614-.957-1.364-4.102-1.023-4.512.136-.137-.41-1.367-.546-1.572.273-.752 1.16-.342 1.5-.479 0 0 .069.068.137.068.545.137 3-.273 3.274-.478.068-.068.545-1.162 1.09-2.461.478-1.3.956-2.461 1.16-2.735.069-.136.205-.41.205-.546 0-.069.478-1.094 1.091-2.256.546-1.094.955-2.188.955-2.325 0-.341-.136-.957-.614-2.256-.136-.41-.34-.751-.34-.82 0-.137-.069-.205-.205-.068-.068-.684-.682-1.436-.478-1.846.137-.547 1.16-.615 1.569-.889.205.137 2.796-.478 5.661-1.435.546-.137 1.773-.479 2.796-.752s2.32-.547 2.933-.752c.614-.137 1.5-.342 1.842-.41.409-.069 1.637-.342 2.728-.547 1.091-.274 2.183-.479 2.319-.547.205 0 1.364-.273 2.66-.478 1.228-.137 2.387-.41 2.66-.41.205 0 .75-.137 1.16-.342.409-.137.818-.342 1.09-.342-.136.136-.204.547-.681.752zM197.994 7.7c-.069 1.299-.341 3.281-.75 4.17-.137.41-.274.957-.342 1.23-.068.41-.273.89-.614 1.094a2.098 2.098 0 0 1-.477.547c0 .069-.137.205-.41.479-.204.342-.477.41-.613.342a.622.622 0 0 0-.478.341c-.136.137-.204.205-.34.137-.205-.41-.956.342-1.365 1.162-.205.479-.273.684-.273.547.137-.478-.136-.41-.409.137-.068.205-.205.41-.273.41-.068 0-.204.068-.273.342-.068.205-.136.41-.204.342-.068 0-.068-.137.068-.41.136-.137.136-.48.136-.684 0-.205 0-.41.069-.342 0 0 .068 0 .136-.068.068-.069-.068-.137-.341-.137-.75 0-.75-.615-.205-1.778.273-.478.478-.888.41-.888 0 0 0-.069.068-.069.204-.136.682-1.64.886-2.94.069-.683.205-1.298.205-1.298 0-.069 0-.684-.068-1.367-.136-.752-.136-1.368-.136-1.504.136-.205.34-.069.409.41.068.205.136.478.204.478.069 0 .069-.205-.136-1.504-.136-.615-.136-.82 0-1.025.068-.137.068-.205 0-.479l-.205-.41-1.227 1.23c-.682.685-1.705 1.71-2.115 2.257-.545.615-1.023 1.162-1.09 1.162-.07.068-.07.137 0 .205 0 .068-.137.41-.41.684-.478.683-1.569 2.597-1.569 2.734 0 .068-.682 1.572-1.091 2.324-.137.342-.41.889-.478 1.3-.136.41-.273 1.025-.34 1.23-.069.341-.137 1.572-.137 2.802v2.256l.478.957c.409.752 1.432 2.393 1.637 2.598 0 0 .136.137.34.41.137.137.546.616.887 1.026 2.455 2.803 2.66 3.145 3.479 4.717.477.82.886 1.777.955 1.982.068.684-.205 2.393-.614 3.145-.137.342-.41.547-.478.547-.136 0-1.023 1.025-1.023 1.162 0 .068-.273.342-.614.547-.34.205-.75.547-.955.684-.75.547-1.773 1.162-2.319 1.298-.954.274-3.955.616-4.638.41-.34 0-.75-.068-1.09-.136-.342 0-.683-.137-.887-.205-.205-.137-.682-.274-1.092-.479-.409-.136-.955-.41-1.091-.547-.136-.136-.546-.546-.887-.752-.409-.205-.614-.546-.682-.615 0 0-.204-.205-.409-.478-.204-.205-.409-.479-.409-.547 0-.069-.41-.547-.955-.889-.614-.615-.75-.82-.682-.957.137-.068.137-.137 0-.342-.205-.342-.477-.683-.41-.957 0-.068 0-.205-.067-.205-.205-.137-.273-.683 0-1.094.068-.205.068-.41 0-.547-.137-.136-.137-.136 0-.136s.34.137.409.205c0 .068.136.137.205.068.068 0-.205-.341-.614-.615-.478-.41-.75-.615-.682-.615.136 0 .34.068.409.136.136.069.136.069.068 0-.068-.068 0-.136.068-.136s.137.068.137.205a.847.847 0 0 0 .136.205c.068-.069.204.068.41.205.204.342.204.41.408.137.069-.205.069-.205.069 0s.068.341.34.273c.069 0 .205.069.205.137s.205.478.546.752c.34.205.545.547.545.683 0 .069 0 .069.069 0 .068 0 .136.069.136.137 0 .069.136.342.34.41.137.137.206.205.07.205-.41 0 .204.41 1.022.616 1.023.273 1.023.136.069-.137-.41-.137-.682-.274-.682-.41 0-.069.136-.069.204 0 .137.068.478.205.682.273.341.069.75.205 1.16.41 1.227.479 2.114.547 4.024.479 2.046 0 2.796-.137 3.274-.684.34-.205.409-.137.34.137 0 .205.205 0 .546-.479.478-.752.887-1.845.955-2.666.068-.478 0-.683-.341-1.367-.477-1.025-1.637-2.666-2.796-4.238-1.364-1.641-1.569-2.051-2.115-3.35-.204-.547-.545-1.23-.682-1.435-.204-.342-.818-1.641-1.023-2.325-.068-.342-.068-.342-.204 0-.068.205-.068.137-.068-.137 0-.205-.137-.683-.273-1.093-.273-.752-.205-4.034.068-5.4.546-2.667 1.569-5.196 3.274-7.794.477-.752.886-1.504 1.023-1.709.136-.205.273-.479.477-.615.068-.069.137-.205.068-.205-.136-.205-1.841 1.64-3.069 3.554-.41.616-.75 1.162-.818 1.162-.068 0-.068-.068 0-.136s.068-.137.136-.205c0-.137.478-1.026.614-1.162a.376.376 0 0 0 .205-.342c0-.547 1.296-2.666 2.114-3.418.818-.752 1.16-1.094 1.228-1.094.068 0 .34-.205.614-.547.204-.205.545-.478.613-.478.069 0 .41-.205.75-.479.41-.342.683-.479.819-.479.068 0 .341-.136.546-.205.477-.205 1.296-.273 1.705 0 .204.137.614.205 1.16.205 1.159-.068 2.455.205 3.137.616.75.615 1.841 1.64 2.25 2.256.614 1.093 1.092 3.144 1.023 4.443zm-24.35 27.413s-.068-.137-.136-.205c-.136-.069-.205-.069-.205 0-.068.137.137.342.341.205zm.137.478c0-.068-.068-.136-.137-.205-.068 0-.068 0-.068.069s0 .137.068.205c.069 0 .137 0 .137-.068zm2.25.342c.41.205.478.205.341.205-.068 0-.204-.068-.409-.136-.272-.205-.272-.205.069-.069zm9.276-32.198c-.068 0-.136.069-.136.205s0 .137.136 0c.205-.205.205-.41 0-.205zm5.389 14.903c.136.342.136.478-.068.342a.522.522 0 0 1-.137-.342c.068-.069.136-.069.205 0zm1.841-13.125c-.068-.205-.068-.205.068-.137.069.068.069.205.069.342-.069 0-.069-.069-.137-.205z"/></svg>